<mxfile host="app.diagrams.net" modified="2025-01-24T12:00:00.000Z" agent="5.0" etag="xxx" version="22.1.16" type="device">
    <diagram name="System Architecture" id="system-architecture">
        <mxGraphModel dx="1422" dy="794" grid="1" gridSize="10" guides="1" tooltips="1" connect="1" arrows="1" fold="1" page="1" pageScale="1" pageWidth="1169" pageHeight="827" math="0" shadow="0">
            <root>
                <mxCell id="0"/>
                <mxCell id="1" parent="0"/>
                <mxCell id="title" value="🍽️ 미쉐린 예약 플랫폼 시스템 아키텍처" style="text;html=1;strokeColor=none;fillColor=none;align=center;verticalAlign=middle;whiteSpace=wrap;rounded=0;fontSize=24;fontStyle=1;fontColor=#333333;" parent="1" vertex="1">
                    <mxGeometry x="200" y="20" width="769" height="40" as="geometry"/>
                </mxCell>
                <mxCell id="ui-layer-bg" value="" style="rounded=1;whiteSpace=wrap;html=1;fillColor=#E1F5FE;strokeColor=#01579B;fontSize=14;fontStyle=1;" parent="1" vertex="1">
                    <mxGeometry x="50" y="80" width="1069" height="80" as="geometry"/>
                </mxCell>
                <mxCell id="ui-layer-title" value="사용자 인터페이스 레이어" style="text;html=1;strokeColor=none;fillColor=none;align=center;verticalAlign=middle;whiteSpace=wrap;rounded=0;fontSize=16;fontStyle=1;fontColor=#01579B;" parent="1" vertex="1">
                    <mxGeometry x="50" y="85" width="1069" height="30" as="geometry"/>
                </mxCell>
                <mxCell id="mobile-app" value="📱&#10;모바일 앱" style="rounded=1;whiteSpace=wrap;html=1;fillColor=#F3E5F5;strokeColor=#4A148C;fontSize=12;fontStyle=1;" parent="1" vertex="1">
                    <mxGeometry x="80" y="125" width="120" height="25" as="geometry"/>
                </mxCell>
                <mxCell id="web-browser" value="🖥️&#10;웹 브라우저" style="rounded=1;whiteSpace=wrap;html=1;fillColor=#F3E5F5;strokeColor=#4A148C;fontSize=12;fontStyle=1;" parent="1" vertex="1">
                    <mxGeometry x="220" y="125" width="120" height="25" as="geometry"/>
                </mxCell>
                <mxCell id="vip-portal" value="💼&#10;기업 VIP 포털" style="rounded=1;whiteSpace=wrap;html=1;fillColor=#F3E5F5;strokeColor=#4A148C;fontSize=12;fontStyle=1;" parent="1" vertex="1">
                    <mxGeometry x="360" y="125" width="120" height="25" as="geometry"/>
                </mxCell>
                <mxCell id="admin-dashboard" value="🔧&#10;관리자 대시보드" style="rounded=1;whiteSpace=wrap;html=1;fillColor=#F3E5F5;strokeColor=#4A148C;fontSize=12;fontStyle=1;" parent="1" vertex="1">
                    <mxGeometry x="500" y="125" width="120" height="25" as="geometry"/>
                </mxCell>
                <mxCell id="https-arrow" value="HTTPS/SSL" style="edgeStyle=orthogonalEdgeStyle;rounded=0;orthogonalLoop=1;jettySize=auto;html=1;fontSize=10;fontColor=#666666;" parent="1" source="ui-layer-bg" edge="1">
                    <mxGeometry relative="1" as="geometry">
                        <mxPoint x="584.5" y="160" as="targetPoint"/>
                    </mxGeometry>
                </mxCell>
                <mxCell id="frontend-layer-bg" value="" style="rounded=1;whiteSpace=wrap;html=1;fillColor=#E8F5E8;strokeColor=#2E7D32;fontSize=14;fontStyle=1;" parent="1" vertex="1">
                    <mxGeometry x="50" y="180" width="1069" height="100" as="geometry"/>
                </mxCell>
                <mxCell id="frontend-layer-title" value="프론트엔드 레이어" style="text;html=1;strokeColor=none;fillColor=none;align=center;verticalAlign=middle;whiteSpace=wrap;rounded=0;fontSize=16;fontStyle=1;fontColor=#2E7D32;" parent="1" vertex="1">
                    <mxGeometry x="50" y="185" width="1069" height="30" as="geometry"/>
                </mxCell>
                <mxCell id="react-ts" value="React 18 + TypeScript 5" style="rounded=1;whiteSpace=wrap;html=1;fillColor=#FFF3E0;strokeColor=#E65100;fontSize=11;fontStyle=1;" parent="1" vertex="1">
                    <mxGeometry x="80" y="225" width="150" height="25" as="geometry"/>
                </mxCell>
                <mxCell id="vite-tailwind" value="Vite + Tailwind CSS" style="rounded=1;whiteSpace=wrap;html=1;fillColor=#FFF3E0;strokeColor=#E65100;fontSize=11;fontStyle=1;" parent="1" vertex="1">
                    <mxGeometry x="250" y="225" width="130" height="25" as="geometry"/>
                </mxCell>
                <mxCell id="router-axios" value="React Router + Axios" style="rounded=1;whiteSpace=wrap;html=1;fillColor=#FFF3E0;strokeColor=#E65100;fontSize=11;fontStyle=1;" parent="1" vertex="1">
                    <mxGeometry x="400" y="225" width="140" height="25" as="geometry"/>
                </mxCell>
                <mxCell id="recharts" value="Recharts" style="rounded=1;whiteSpace=wrap;html=1;fillColor=#FFF3E0;strokeColor=#E65100;fontSize=11;fontStyle=1;" parent="1" vertex="1">
                    <mxGeometry x="560" y="225" width="80" height="25" as="geometry"/>
                </mxCell>
                <mxCell id="naver-map" value="Naver Map API" style="rounded=1;whiteSpace=wrap;html=1;fillColor=#FFF3E0;strokeColor=#E65100;fontSize=11;fontStyle=1;" parent="1" vertex="1">
                    <mxGeometry x="660" y="225" width="120" height="25" as="geometry"/>
                </mxCell>
                <mxCell id="component-arch" value="• 컴포넌트 기반 아키텍처" style="text;html=1;strokeColor=none;fillColor=none;align=left;verticalAlign=middle;whiteSpace=wrap;rounded=0;fontSize=10;fontColor=#666666;" parent="1" vertex="1">
                    <mxGeometry x="80" y="260" width="200" height="15" as="geometry"/>
                </mxCell>
                <mxCell id="state-management" value="• 상태 관리 (Context API)" style="text;html=1;strokeColor=none;fillColor=none;align=left;verticalAlign=middle;whiteSpace=wrap;rounded=0;fontSize=10;fontColor=#666666;" parent="1" vertex="1">
                    <mxGeometry x="300" y="260" width="180" height="15" as="geometry"/>
                </mxCell>
                <mxCell id="routing" value="• 라우팅 (React Router)" style="text;html=1;strokeColor=none;fillColor=none;align=left;verticalAlign=middle;whiteSpace=wrap;rounded=0;fontSize=10;fontColor=#666666;" parent="1" vertex="1">
                    <mxGeometry x="500" y="260" width="150" height="15" as="geometry"/>
                </mxCell>
                <mxCell id="api-communication" value="• API 통신 (Axios)" style="text;html=1;strokeColor=none;fillColor=none;align=left;verticalAlign=middle;whiteSpace=wrap;rounded=0;fontSize=10;fontColor=#666666;" parent="1" vertex="1">
                    <mxGeometry x="670" y="260" width="130" height="15" as="geometry"/>
                </mxCell>
                <mxCell id="gateway-layer-bg" value="" style="rounded=1;whiteSpace=wrap;html=1;fillColor=#FFF8E1;strokeColor=#F57F17;fontSize=14;fontStyle=1;" parent="1" vertex="1">
                    <mxGeometry x="50" y="300" width="1069" height="80" as="geometry"/>
                </mxCell>
                <mxCell id="gateway-layer-title" value="API 게이트웨이 레이어" style="text;html=1;strokeColor=none;fillColor=none;align=center;verticalAlign=middle;whiteSpace=wrap;rounded=0;fontSize=16;fontStyle=1;fontColor=#F57F17;" parent="1" vertex="1">
                    <mxGeometry x="50" y="305" width="1069" height="30" as="geometry"/>
                </mxCell>
                <mxCell id="nginx" value="Nginx (Reverse Proxy)" style="rounded=1;whiteSpace=wrap;html=1;fillColor=#FCE4EC;strokeColor=#880E4F;fontSize=11;fontStyle=1;" parent="1" vertex="1">
                    <mxGeometry x="80" y="345" width="150" height="25" as="geometry"/>
                </mxCell>
                <mxCell id="load-balancer" value="Load Balancer" style="rounded=1;whiteSpace=wrap;html=1;fillColor=#FCE4EC;strokeColor=#880E4F;fontSize=11;fontStyle=1;" parent="1" vertex="1">
                    <mxGeometry x="250" y="345" width="120" height="25" as="geometry"/>
                </mxCell>
                <mxCell id="ssl-termination" value="SSL Termination" style="rounded=1;whiteSpace=wrap;html=1;fillColor=#FCE4EC;strokeColor=#880E4F;fontSize=11;fontStyle=1;" parent="1" vertex="1">
                    <mxGeometry x="390" y="345" width="120" height="25" as="geometry"/>
                </mxCell>
                <mxCell id="cors-rate-limit" value="CORS + Rate Limiting" style="rounded=1;whiteSpace=wrap;html=1;fillColor=#FCE4EC;strokeColor=#880E4F;fontSize=11;fontStyle=1;" parent="1" vertex="1">
                    <mxGeometry x="530" y="345" width="140" height="25" as="geometry"/>
                </mxCell>
                <mxCell id="backend-layer-bg" value="" style="rounded=1;whiteSpace=wrap;html=1;fillColor=#F1F8E9;strokeColor=#33691E;fontSize=14;fontStyle=1;" parent="1" vertex="1">
                    <mxGeometry x="50" y="400" width="1069" height="120" as="geometry"/>
                </mxCell>
                <mxCell id="backend-layer-title" value="백엔드 API 레이어" style="text;html=1;strokeColor=none;fillColor=none;align=center;verticalAlign=middle;whiteSpace=wrap;rounded=0;fontSize=16;fontStyle=1;fontColor=#33691E;" parent="1" vertex="1">
                    <mxGeometry x="50" y="405" width="1069" height="30" as="geometry"/>
                </mxCell>
                <mxCell id="node-express" value="Node.js 18 + Express" style="rounded=1;whiteSpace=wrap;html=1;fillColor=#E0F2F1;strokeColor=#004D40;fontSize=11;fontStyle=1;" parent="1" vertex="1">
                    <mxGeometry x="80" y="445" width="140" height="25" as="geometry"/>
                </mxCell>
                <mxCell id="typescript-prisma" value="TypeScript + Prisma" style="rounded=1;whiteSpace=wrap;html=1;fillColor=#E0F2F1;strokeColor=#004D40;fontSize=11;fontStyle=1;" parent="1" vertex="1">
                    <mxGeometry x="240" y="445" width="130" height="25" as="geometry"/>
                </mxCell>
                <mxCell id="jwt-websocket" value="JWT + WebSocket" style="rounded=1;whiteSpace=wrap;html=1;fillColor=#E0F2F1;strokeColor=#004D40;fontSize=11;fontStyle=1;" parent="1" vertex="1">
                    <mxGeometry x="390" y="445" width="120" height="25" as="geometry"/>
                </mxCell>
                <mxCell id="swagger" value="Swagger" style="rounded=1;whiteSpace=wrap;html=1;fillColor=#E0F2F1;strokeColor=#004D40;fontSize=11;fontStyle=1;" parent="1" vertex="1">
                    <mxGeometry x="530" y="445" width="80" height="25" as="geometry"/>
                </mxCell>
                <mxCell id="auth-service" value="인증/권한 관리&#10;• JWT 토큰&#10;• 소셜 로그인&#10;• 권한 제어" style="rounded=1;whiteSpace=wrap;html=1;fillColor=#F3E5F5;strokeColor=#4A148C;fontSize=10;fontStyle=1;" parent="1" vertex="1">
                    <mxGeometry x="80" y="480" width="120" height="30" as="geometry"/>
                </mxCell>
                <mxCell id="reservation-service" value="예약 관리&#10;• 실시간 예약&#10;• 알림 시스템&#10;• 결제 연동" style="rounded=1;whiteSpace=wrap;html=1;fillColor=#F3E5F5;strokeColor=#4A148C;fontSize=10;fontStyle=1;" parent="1" vertex="1">
                    <mxGeometry x="220" y="480" width="120" height="30" as="geometry"/>
                </mxCell>
                <mxCell id="restaurant-service" value="레스토랑 관리&#10;• 정보 CRUD&#10;• 메뉴 관리&#10;• 위치 기반 검색" style="rounded=1;whiteSpace=wrap;html=1;fillColor=#F3E5F5;strokeColor=#4A148C;fontSize=10;fontStyle=1;" parent="1" vertex="1">
                    <mxGeometry x="360" y="480" width="120" height="30" as="geometry"/>
                </mxCell>
                <mxCell id="review-service" value="리뷰/평가&#10;• 별점 시스템&#10;• 사진 업로드&#10;• 태그 시스템" style="rounded=1;whiteSpace=wrap;html=1;fillColor=#F3E5F5;strokeColor=#4A148C;fontSize=10;fontStyle=1;" parent="1" vertex="1">
                    <mxGeometry x="500" y="480" width="120" height="30" as="geometry"/>
                </mxCell>
                <mxCell id="vip-service" value="VIP 컨시어지&#10;• 맞춤 서비스&#10;• 일정 관리&#10;• 전담 지원" style="rounded=1;whiteSpace=wrap;html=1;fillColor=#F3E5F5;strokeColor=#4A148C;fontSize=10;fontStyle=1;" parent="1" vertex="1">
                    <mxGeometry x="640" y="480" width="120" height="30" as="geometry"/>
                </mxCell>
                <mxCell id="payment-service" value="결제 시스템&#10;• 결제 처리&#10;• 환불 처리&#10;• 결제 검증" style="rounded=1;whiteSpace=wrap;html=1;fillColor=#F3E5F5;strokeColor=#4A148C;fontSize=10;fontStyle=1;" parent="1" vertex="1">
                    <mxGeometry x="780" y="480" width="120" height="30" as="geometry"/>
                </mxCell>
                <mxCell id="notification-service" value="알림 시스템&#10;• 이메일/SMS&#10;• 푸시 알림&#10;• WebSocket" style="rounded=1;whiteSpace=wrap;html=1;fillColor=#F3E5F5;strokeColor=#4A148C;fontSize=10;fontStyle=1;" parent="1" vertex="1">
                    <mxGeometry x="920" y="480" width="120" height="30" as="geometry"/>
                </mxCell>
                <mxCell id="data-layer-bg" value="" style="rounded=1;whiteSpace=wrap;html=1;fillColor=#E3F2FD;strokeColor=#0D47A1;fontSize=14;fontStyle=1;" parent="1" vertex="1">
                    <mxGeometry x="50" y="540" width="1069" height="80" as="geometry"/>
                </mxCell>
                <mxCell id="data-layer-title" value="데이터 레이어" style="text;html=1;strokeColor=none;fillColor=none;align=center;verticalAlign=middle;whiteSpace=wrap;rounded=0;fontSize=16;fontStyle=1;fontColor=#0D47A1;" parent="1" vertex="1">
                    <mxGeometry x="50" y="545" width="1069" height="30" as="geometry"/>
                </mxCell>
                <mxCell id="mysql" value="MySQL 8.0&#10;• 사용자 데이터&#10;• 예약 데이터&#10;• 레스토랑 데이터&#10;• 결제 데이터" style="rounded=1;whiteSpace=wrap;html=1;fillColor=#FFF3E0;strokeColor=#E65100;fontSize=10;fontStyle=1;" parent="1" vertex="1">
                    <mxGeometry x="80" y="585" width="120" height="25" as="geometry"/>
                </mxCell>
                <mxCell id="redis" value="Redis Cache&#10;• 세션 캐시&#10;• API 캐시&#10;• 실시간 데이터&#10;• 임시 데이터" style="rounded=1;whiteSpace=wrap;html=1;fillColor=#FFF3E0;strokeColor=#E65100;fontSize=10;fontStyle=1;" parent="1" vertex="1">
                    <mxGeometry x="220" y="585" width="120" height="25" as="geometry"/>
                </mxCell>
                <mxCell id="file-storage" value="File Storage&#10;• 이미지/파일&#10;• 백업 파일&#10;• 문서 파일&#10;• 미디어 파일" style="rounded=1;whiteSpace=wrap;html=1;fillColor=#FFF3E0;strokeColor=#E65100;fontSize=10;fontStyle=1;" parent="1" vertex="1">
                    <mxGeometry x="360" y="585" width="120" height="25" as="geometry"/>
                </mxCell>
                <mxCell id="log-storage" value="Log Storage&#10;• 애플리케이션 로그&#10;• 에러 로그&#10;• 성능 로그&#10;• 보안 로그" style="rounded=1;whiteSpace=wrap;html=1;fillColor=#FFF3E0;strokeColor=#E65100;fontSize=10;fontStyle=1;" parent="1" vertex="1">
                    <mxGeometry x="500" y="585" width="120" height="25" as="geometry"/>
                </mxCell>
                <mxCell id="external-layer-bg" value="" style="rounded=1;whiteSpace=wrap;html=1;fillColor=#F9FBE7;strokeColor=#827717;fontSize=14;fontStyle=1;" parent="1" vertex="1">
                    <mxGeometry x="50" y="640" width="1069" height="100" as="geometry"/>
                </mxCell>
                <mxCell id="external-layer-title" value="외부 서비스 레이어" style="text;html=1;strokeColor=none;fillColor=none;align=center;verticalAlign=middle;whiteSpace=wrap;rounded=0;fontSize=16;fontStyle=1;fontColor=#827717;" parent="1" vertex="1">
                    <mxGeometry x="50" y="645" width="1069" height="30" as="geometry"/>
                </mxCell>
                <mxCell id="naver-map-api" value="네이버 지도 API&#10;• 위치 검색&#10;• 경로 안내&#10;• 지도 렌더링" style="rounded=1;whiteSpace=wrap;html=1;fillColor=#E8EAF6;strokeColor=#3F51B5;fontSize=10;fontStyle=1;" parent="1" vertex="1">
                    <mxGeometry x="80" y="685" width="120" height="25" as="geometry"/>
                </mxCell>
                <mxCell id="naver-social" value="네이버 소셜&#10;• 로그인 연동&#10;• 사용자 정보&#10;• 프로필 동기화" style="rounded=1;whiteSpace=wrap;html=1;fillColor=#E8EAF6;strokeColor=#3F51B5;fontSize=10;fontStyle=1;" parent="1" vertex="1">
                    <mxGeometry x="220" y="685" width="120" height="25" as="geometry"/>
                </mxCell>
                <mxCell id="payment-gateway" value="결제 게이트웨이&#10;• 카드 결제&#10;• 계좌 이체&#10;• 결제 검증" style="rounded=1;whiteSpace=wrap;html=1;fillColor=#E8EAF6;strokeColor=#3F51B5;fontSize=10;fontStyle=1;" parent="1" vertex="1">
                    <mxGeometry x="360" y="685" width="120" height="25" as="geometry"/>
                </mxCell>
                <mxCell id="email-service" value="이메일 서비스&#10;• SMTP 서버&#10;• 템플릿 관리&#10;• 발송 추적" style="rounded=1;whiteSpace=wrap;html=1;fillColor=#E8EAF6;strokeColor=#3F51B5;fontSize=10;fontStyle=1;" parent="1" vertex="1">
                    <mxGeometry x="500" y="685" width="120" height="25" as="geometry"/>
                </mxCell>
                <mxCell id="sms-service" value="SMS 서비스&#10;• 문자 발송&#10;• 인증 코드&#10;• 마케팅 메시지" style="rounded=1;whiteSpace=wrap;html=1;fillColor=#E8EAF6;strokeColor=#3F51B5;fontSize=10;fontStyle=1;" parent="1" vertex="1">
                    <mxGeometry x="640" y="685" width="120" height="25" as="geometry"/>
                </mxCell>
                <mxCell id="push-notification" value="푸시 알림&#10;• FCM/APNS&#10;• 실시간 알림&#10;• 예약 알림" style="rounded=1;whiteSpace=wrap;html=1;fillColor=#E8EAF6;strokeColor=#3F51B5;fontSize=10;fontStyle=1;" parent="1" vertex="1">
                    <mxGeometry x="780" y="685" width="120" height="25" as="geometry"/>
                </mxCell>
                <mxCell id="michelin-db" value="미쉐린 DB&#10;• 레스토랑 정보&#10;• 메뉴 데이터&#10;• 평점 정보" style="rounded=1;whiteSpace=wrap;html=1;fillColor=#E8EAF6;strokeColor=#3F51B5;fontSize=10;fontStyle=1;" parent="1" vertex="1">
                    <mxGeometry x="920" y="685" width="120" height="25" as="geometry"/>
                </mxCell>
                <mxCell id="monitoring-service" value="모니터링 서비스&#10;• Sentry&#10;• Prometheus&#10;• Grafana" style="rounded=1;whiteSpace=wrap;html=1;fillColor=#E8EAF6;strokeColor=#3F51B5;fontSize=10;fontStyle=1;" parent="1" vertex="1">
                    <mxGeometry x="1060" y="685" width="120" height="25" as="geometry"/>
                </mxCell>
                <mxCell id="infra-layer-bg" value="" style="rounded=1;whiteSpace=wrap;html=1;fillColor=#FCE4EC;strokeColor=#880E4F;fontSize=14;fontStyle=1;" parent="1" vertex="1">
                    <mxGeometry x="50" y="760" width="1069" height="100" as="geometry"/>
                </mxCell>
                <mxCell id="infra-layer-title" value="인프라 레이어" style="text;html=1;strokeColor=none;fillColor=none;align=center;verticalAlign=middle;whiteSpace=wrap;rounded=0;fontSize=16;fontStyle=1;fontColor=#880E4F;" parent="1" vertex="1">
                    <mxGeometry x="50" y="765" width="1069" height="30" as="geometry"/>
                </mxCell>
                <mxCell id="kubernetes" value="Kubernetes&#10;• 컨테이너 오케스트레이션&#10;• 스케일링&#10;• 로드 밸런싱&#10;• 서비스 디스커버리" style="rounded=1;whiteSpace=wrap;html=1;fillColor=#E1F5FE;strokeColor=#01579B;fontSize=10;fontStyle=1;" parent="1" vertex="1">
                    <mxGeometry x="80" y="805" width="120" height="25" as="geometry"/>
                </mxCell>
                <mxCell id="docker" value="Docker&#10;• 컨테이너화&#10;• 이미지 관리&#10;• 환경 격리&#10;• 포트 관리" style="rounded=1;whiteSpace=wrap;html=1;fillColor=#E1F5FE;strokeColor=#01579B;fontSize=10;fontStyle=1;" parent="1" vertex="1">
                    <mxGeometry x="220" y="805" width="120" height="25" as="geometry"/>
                </mxCell>
                <mxCell id="helm" value="Helm Charts&#10;• 배포 자동화&#10;• 설정 관리&#10;• 버전 관리&#10;• 롤백 지원" style="rounded=1;whiteSpace=wrap;html=1;fillColor=#E1F5FE;strokeColor=#01579B;fontSize=10;fontStyle=1;" parent="1" vertex="1">
                    <mxGeometry x="360" y="805" width="120" height="25" as="geometry"/>
                </mxCell>
                <mxCell id="cicd" value="CI/CD Pipeline&#10;• GitHub Actions&#10;• 자동 테스트&#10;• 자동 배포&#10;• 품질 검사" style="rounded=1;whiteSpace=wrap;html=1;fillColor=#E1F5FE;strokeColor=#01579B;fontSize=10;fontStyle=1;" parent="1" vertex="1">
                    <mxGeometry x="500" y="805" width="120" height="25" as="geometry"/>
                </mxCell>
                <mxCell id="ncp-cloud" value="NCP 클라우드&#10;• 가상 머신&#10;• 로드 밸런서&#10;• 오브젝트 스토리지&#10;• CDN" style="rounded=1;whiteSpace=wrap;html=1;fillColor=#E1F5FE;strokeColor=#01579B;fontSize=10;fontStyle=1;" parent="1" vertex="1">
                    <mxGeometry x="640" y="805" width="120" height="25" as="geometry"/>
                </mxCell>
                <mxCell id="monitoring-stack" value="모니터링 스택&#10;• Prometheus&#10;• Grafana&#10;• AlertManager&#10;• Node Exporter" style="rounded=1;whiteSpace=wrap;html=1;fillColor=#E1F5FE;strokeColor=#01579B;fontSize=10;fontStyle=1;" parent="1" vertex="1">
                    <mxGeometry x="780" y="805" width="120" height="25" as="geometry"/>
                </mxCell>
                <mxCell id="logging-system" value="로깅 시스템&#10;• ELK Stack&#10;• Fluentd&#10;• Log Rotation&#10;• 로그 분석" style="rounded=1;whiteSpace=wrap;html=1;fillColor=#E1F5FE;strokeColor=#01579B;fontSize=10;fontStyle=1;" parent="1" vertex="1">
                    <mxGeometry x="920" y="805" width="120" height="25" as="geometry"/>
                </mxCell>
                <mxCell id="security-system" value="보안 시스템&#10;• WAF&#10;• SSL/TLS&#10;• 방화벽&#10;• 접근 제어" style="rounded=1;whiteSpace=wrap;html=1;fillColor=#E1F5FE;strokeColor=#01579B;fontSize=10;fontStyle=1;" parent="1" vertex="1">
                    <mxGeometry x="1060" y="805" width="120" height="25" as="geometry"/>
                </mxCell>
                <mxCell id="frontend-to-gateway" value="REST API + WebSocket" style="edgeStyle=orthogonalEdgeStyle;rounded=0;orthogonalLoop=1;jettySize=auto;html=1;fontSize=10;fontColor=#666666;" parent="1" source="frontend-layer-bg" target="gateway-layer-bg" edge="1">
                    <mxGeometry relative="1" as="geometry"/>
                </mxCell>
                <mxCell id="gateway-to-backend" value="HTTP/WebSocket" style="edgeStyle=orthogonalEdgeStyle;rounded=0;orthogonalLoop=1;jettySize=auto;html=1;fontSize=10;fontColor=#666666;" parent="1" source="gateway-layer-bg" target="backend-layer-bg" edge="1">
                    <mxGeometry relative="1" as="geometry"/>
                </mxCell>
                <mxCell id="backend-to-data" value="Database Queries" style="edgeStyle=orthogonalEdgeStyle;rounded=0;orthogonalLoop=1;jettySize=auto;html=1;fontSize=10;fontColor=#666666;" parent="1" source="backend-layer-bg" target="data-layer-bg" edge="1">
                    <mxGeometry relative="1" as="geometry"/>
                </mxCell>
                <mxCell id="backend-to-external" value="External APIs" style="edgeStyle=orthogonalEdgeStyle;rounded=0;orthogonalLoop=1;jettySize=auto;html=1;fontSize=10;fontColor=#666666;" parent="1" source="backend-layer-bg" target="external-layer-bg" edge="1">
                    <mxGeometry relative="1" as="geometry"/>
                </mxCell>
                <mxCell id="external-to-infra" value="Infrastructure" style="edgeStyle=orthogonalEdgeStyle;rounded=0;orthogonalLoop=1;jettySize=auto;html=1;fontSize=10;fontColor=#666666;" parent="1" source="external-layer-bg" target="infra-layer-bg" edge="1">
                    <mxGeometry relative="1" as="geometry"/>
                </mxCell>
            </root>
        </mxGraphModel>
    </diagram>
</mxfile>